<svg width="20" height="20" viewBox="0 0 20 20" fill="none" xmlns="http://www.w3.org/2000/svg">
<path d="M1.98047 2.19824H18.0217V17.802H1.98047V2.19824Z" fill="#1C0A00"/>
<path d="M1.98062 2.19813H18.0219V17.8019H1.98062V2.19813ZM1.25 18.5312H18.75V1.46875H1.25V18.5312ZM12.7125 7.55C12.7125 7.49187 12.7344 7.4625 12.8 7.4625H13.945C14.0031 7.4625 14.0325 7.48437 14.0325 7.55V13.3031C14.0325 13.3612 14.0181 13.3906 13.945 13.3906H12.8156C12.7425 13.3906 12.7206 13.3544 12.7206 13.2956V7.55H12.7125ZM12.6325 5.895C12.6325 5.69775 12.7109 5.50857 12.8503 5.36909C12.9898 5.22961 13.179 5.15125 13.3763 5.15125C13.5735 5.15125 13.7627 5.22961 13.9022 5.36909C14.0416 5.50857 14.12 5.69775 14.12 5.895C14.1272 5.99577 14.1124 6.09689 14.0767 6.19138C14.0409 6.28586 13.985 6.37144 13.9129 6.44219C13.8408 6.51294 13.7542 6.56716 13.659 6.6011C13.5639 6.63504 13.4625 6.64789 13.3619 6.63875C13.2633 6.64493 13.1646 6.62981 13.0723 6.5944C12.9801 6.55899 12.8967 6.50412 12.8276 6.43355C12.7585 6.36297 12.7054 6.27833 12.6719 6.1854C12.6385 6.09247 12.6255 5.99342 12.6338 5.895H12.6325ZM9.35125 9.94938C9.14687 9.13688 8.66375 7.37563 8.48375 6.5225H8.46937C8.31625 7.37563 7.93 8.81938 7.62375 9.94938H9.35125ZM7.32438 11.1306L6.74813 13.3181C6.73375 13.3762 6.71187 13.3913 6.63875 13.3913H5.56813C5.495 13.3913 5.48062 13.3694 5.495 13.2819L7.56562 6.03188C7.61588 5.83419 7.64046 5.63085 7.63875 5.42687C7.63875 5.37562 7.66062 5.35375 7.69687 5.35375H9.22813C9.27938 5.35375 9.30125 5.36812 9.31563 5.42687L11.6344 13.2944C11.6488 13.3525 11.6344 13.3894 11.5763 13.3894H10.3656C10.3075 13.3894 10.2706 13.375 10.2563 13.3269L9.65812 11.1319H7.325L7.32438 11.1306Z" fill="#FF7F18"/>
</svg>
