<svg width="21" height="21" viewBox="0 0 21 21" fill="none" xmlns="http://www.w3.org/2000/svg">
<path d="M10.8209 9.13163C11.0278 9.33848 11.2787 9.47603 11.5444 9.54323C11.3318 9.9947 11.2485 10.4963 11.3039 10.9922L10.4996 11.4658L2.11536 6.53393C2.18693 5.892 2.49265 5.299 2.97404 4.86836C3.45544 4.43772 4.07871 4.19968 4.72461 4.19978H13.5184L10.8188 6.90353C10.6726 7.04993 10.5566 7.22371 10.4776 7.41494C10.3986 7.60617 10.358 7.8111 10.3582 8.01801C10.3584 8.22493 10.3994 8.42978 10.4788 8.62086C10.5581 8.81194 10.6744 8.9855 10.8209 9.13163ZM11.6357 12.016C11.7519 12.2232 11.8982 12.415 12.0746 12.5914C13.1246 13.6414 14.8256 13.6403 15.8756 12.5914L18.8996 9.57893V15.2248C18.8996 15.921 18.623 16.5887 18.1308 17.0809C17.6385 17.5732 16.9708 17.8498 16.2746 17.8498H4.72461C4.02842 17.8498 3.36074 17.5732 2.86845 17.0809C2.37617 16.5887 2.09961 15.921 2.09961 15.2248V7.74143L10.234 12.5273C10.3146 12.5748 10.4065 12.5998 10.5001 12.5998C10.5937 12.5998 10.6856 12.5748 10.7663 12.5273L11.6357 12.016ZM15.9869 4.69958C16.3079 4.38445 16.7403 4.20882 17.1901 4.21088C17.6399 4.21295 18.0707 4.39255 18.3888 4.71062C18.7068 5.02868 18.8864 5.45947 18.8885 5.90928C18.8906 6.35908 18.7149 6.79151 18.3998 7.11248L18.3893 7.12298L14.3384 11.1592L14.3279 11.1697C14.2725 11.2235 14.207 11.2658 14.1352 11.2943C14.0634 11.3227 13.9867 11.3368 13.9095 11.3356C13.8323 11.3344 13.756 11.3181 13.6851 11.2874C13.6143 11.2568 13.5501 11.2125 13.4963 11.1571C13.4425 11.1016 13.4002 11.0362 13.3717 10.9644C13.3433 10.8926 13.3292 10.8159 13.3304 10.7387C13.3316 10.6614 13.3479 10.5852 13.3786 10.5143C13.4092 10.4434 13.4535 10.3793 13.5089 10.3255L17.1703 6.67148C17.2688 6.57304 17.3243 6.43947 17.3244 6.30015C17.3245 6.16083 17.2692 6.02718 17.1708 5.9286C17.0723 5.83002 16.9388 5.77459 16.7995 5.77449C16.6601 5.77439 16.5265 5.82964 16.4279 5.92808L12.7529 9.59573L12.7361 9.61358C12.4358 9.92258 12.2693 10.3375 12.2727 10.7684C12.2762 11.1993 12.4493 11.6114 12.7546 11.9156C13.0598 12.2197 13.4726 12.3913 13.9035 12.3932C14.3344 12.3951 14.7487 12.2271 15.0566 11.9257L15.0692 11.9141L19.1422 7.85588L19.1548 7.84223C19.6593 7.32155 19.9383 6.62304 19.9315 5.89805C19.9246 5.17306 19.6323 4.47997 19.118 3.96897C18.6037 3.45796 17.9087 3.17018 17.1837 3.16798C16.4587 3.16578 15.762 3.44935 15.2446 3.95723L11.4971 7.70888C11.4015 7.8079 11.3486 7.94051 11.3498 8.07816C11.351 8.21582 11.4062 8.34749 11.5035 8.44483C11.6008 8.54217 11.7325 8.59739 11.8702 8.59858C12.0078 8.59978 12.1404 8.54686 12.2395 8.45123L15.9869 4.69958Z" fill="#09B9FF"/>
</svg>
