<svg width="21" height="21" viewBox="0 0 21 21" fill="none" xmlns="http://www.w3.org/2000/svg">
<path d="M8.95784 4.22352C9.30268 4.22348 9.64415 4.29139 9.96274 4.42336C10.2813 4.55532 10.5708 4.74877 10.8146 4.99265L16.489 10.667C16.7328 10.9108 16.9262 11.2002 17.0581 11.5187C17.1901 11.8372 17.258 12.1786 17.258 12.5233C17.258 12.8681 17.1901 13.2095 17.0581 13.528C16.9262 13.8465 16.7328 14.1359 16.489 14.3796L12.7763 18.0914C12.2841 18.5835 11.6165 18.86 10.9205 18.86C10.2244 18.86 9.55685 18.5835 9.06459 18.0914L3.38934 12.417C2.89735 11.9247 2.62101 11.2572 2.62109 10.5611V6.41102C2.62109 5.83086 2.85156 5.27446 3.2618 4.86423C3.67203 4.45399 4.22843 4.22352 4.80859 4.22352H8.95784ZM8.44509 8.19252C8.32494 8.06357 8.18003 7.96014 8.01904 7.88841C7.85804 7.81667 7.68424 7.7781 7.50801 7.77499C7.33178 7.77188 7.15673 7.8043 6.9933 7.87031C6.82987 7.93632 6.68141 8.03457 6.55678 8.15921C6.43214 8.28384 6.33389 8.4323 6.26788 8.59573C6.20187 8.75916 6.16945 8.93421 6.17256 9.11044C6.17567 9.28667 6.21424 9.46047 6.28598 9.62147C6.35771 9.78246 6.46114 9.92737 6.59009 10.0475C6.8389 10.2794 7.16798 10.4056 7.50801 10.3996C7.84804 10.3936 8.17246 10.2558 8.41293 10.0154C8.65341 9.77489 8.79115 9.45047 8.79715 9.11044C8.80315 8.77041 8.67693 8.44133 8.44509 8.19252ZM10.1951 1.74902C10.8315 1.74889 11.4462 1.97992 11.925 2.39915L12.0518 2.51727L18.3448 8.81115C18.5018 8.96861 18.5929 9.1799 18.5997 9.40211C18.6065 9.62432 18.5284 9.84077 18.3814 10.0075C18.2343 10.1743 18.0294 10.2788 17.8081 10.2999C17.5867 10.321 17.3657 10.257 17.1898 10.121L17.1076 10.0484L10.8146 3.75365C10.6785 3.61766 10.5013 3.53032 10.3106 3.50515L10.1951 3.4999H6.12459C5.90021 3.50167 5.68373 3.41718 5.51987 3.26388C5.35602 3.11057 5.25732 2.90018 5.24418 2.67618C5.23104 2.45218 5.30445 2.23169 5.44925 2.06027C5.59405 1.88886 5.79917 1.77963 6.02222 1.75515L6.12459 1.7499L10.1951 1.74902Z" fill="#D46262"/>
</svg>
