<svg width="27" height="27" viewBox="0 0 27 27" fill="none" xmlns="http://www.w3.org/2000/svg">
<g filter="url(#filter0_d_458_49)">
<path d="M13.4998 19C18.6878 19 23 14.6971 23 9.5C23 4.31208 18.6783 0 13.4903 0C8.29349 0 4 4.31208 4 9.5C4 14.6971 8.30263 19 13.4998 19ZM10.5849 8.61501C10.0261 8.61501 9.56039 8.12146 9.56039 7.4137C9.56039 6.71509 10.0261 6.22153 10.5849 6.22153C11.1532 6.22153 11.6281 6.71509 11.6281 7.4137C11.6281 8.12146 11.1532 8.61501 10.5849 8.61501ZM16.1922 8.61501C15.6239 8.61501 15.1581 8.12146 15.1581 7.4137C15.1581 6.71509 15.6239 6.22153 16.1918 6.22153C16.7509 6.22153 17.2258 6.71509 17.2258 7.4137C17.2258 8.12146 16.7509 8.61501 16.1918 8.61501M13.3695 14.101C11.0407 14.101 9.59735 12.4526 9.59735 11.8378C9.59735 11.7075 9.68081 11.6606 9.78334 11.7353C10.4541 12.2758 11.6742 12.8901 13.3695 12.8901C15.0648 12.8901 16.2474 12.3036 16.946 11.7258C17.0486 11.6515 17.1416 11.7075 17.1416 11.8378C17.1416 12.4526 15.6887 14.101 13.3695 14.101Z" fill="#FFD503"/>
</g>
<defs>
<filter id="filter0_d_458_49" x="0" y="0" width="27" height="27" filterUnits="userSpaceOnUse" color-interpolation-filters="sRGB">
<feFlood flood-opacity="0" result="BackgroundImageFix"/>
<feColorMatrix in="SourceAlpha" type="matrix" values="0 0 0 0 0 0 0 0 0 0 0 0 0 0 0 0 0 0 127 0" result="hardAlpha"/>
<feOffset dy="4"/>
<feGaussianBlur stdDeviation="2"/>
<feComposite in2="hardAlpha" operator="out"/>
<feColorMatrix type="matrix" values="0 0 0 0 0 0 0 0 0 0 0 0 0 0 0 0 0 0 0.25 0"/>
<feBlend mode="normal" in2="BackgroundImageFix" result="effect1_dropShadow_458_49"/>
<feBlend mode="normal" in="SourceGraphic" in2="effect1_dropShadow_458_49" result="shape"/>
</filter>
</defs>
</svg>
